<svg xmlns="http://www.w3.org/2000/svg" xmlns:xlink="http://www.w3.org/1999/xlink" width="55.97" height="35.918" viewBox="0 0 55.97 35.918"><defs><clipPath id="clip-path"><rect width="55.97" height="35.918" fill="none"></rect></clipPath></defs><g id="Repeat_Grid_30" data-name="Repeat Grid 30" clip-path="url(#clip-path)"><g id="Group_573" data-name="Group 573" transform="translate(0 0)"><g id="Group_492" data-name="Group 492"><path id="Path_1029" data-name="Path 1029" d="M122.108,7.7,108.2,43.618h-7.157l11.748-29.774H97.6V7.7Z" transform="translate(-97.6 -7.7)" fill="#d7cdba"></path><path id="Path_1030" data-name="Path 1030" d="M161.608,7.7v6.144H146.417L158.1,43.618h-7.089L137.1,7.7Z" transform="translate(-110.431 -7.7)" fill="#d7cdba"></path><path id="Path_1031" data-name="Path 1031" d="M177.878,58.043a2.119,2.119,0,0,1-2.971,0,1.958,1.958,0,0,1,0-2.836,2.119,2.119,0,0,1,2.971,0,1.958,1.958,0,0,1,0,2.836m-.27-2.566a1.63,1.63,0,1,0,.473,1.148,1.915,1.915,0,0,0-.473-1.148m-.27,2.16h-.473l-.405-.743h-.338v.743h-.405V55.613h.878a.692.692,0,0,1,.675.675c0,.135,0,.2-.068.27l-.2.2-.068.067Zm-1.215-1.148h.473a.271.271,0,1,0,0-.54h-.473Z" transform="translate(-122.516 -22.935)" fill="#d7cdba"></path></g></g></g></svg>